<svg width="460" height="400"><g transform="translate(50,30)"><g transform="translate(0,340)" fill="none" font-size="10" font-family="sans-serif" text-anchor="middle"><path class="domain" stroke="#000" d="M0.5,6V0.5H380.5V6"></path><g class="tick" opacity="1" transform="translate(0.5,0)"><line stroke="#000" y2="6"></line><text fill="#000" y="9" dy="0.71em">0</text></g><g class="tick" opacity="1" transform="translate(38.5,0)"><line stroke="#000" y2="6"></line><text fill="#000" y="9" dy="0.71em">100</text></g><g class="tick" opacity="1" transform="translate(76.5,0)"><line stroke="#000" y2="6"></line><text fill="#000" y="9" dy="0.71em">200</text></g><g class="tick" opacity="1" transform="translate(114.5,0)"><line stroke="#000" y2="6"></line><text fill="#000" y="9" dy="0.71em">300</text></g><g class="tick" opacity="1" transform="translate(152.5,0)"><line stroke="#000" y2="6"></line><text fill="#000" y="9" dy="0.71em">400</text></g><g class="tick" opacity="1" transform="translate(190.5,0)"><line stroke="#000" y2="6"></line><text fill="#000" y="9" dy="0.71em">500</text></g><g class="tick" opacity="1" transform="translate(228.5,0)"><line stroke="#000" y2="6"></line><text fill="#000" y="9" dy="0.71em">600</text></g><g class="tick" opacity="1" transform="translate(266.5,0)"><line stroke="#000" y2="6"></line><text fill="#000" y="9" dy="0.71em">700</text></g><g class="tick" opacity="1" transform="translate(304.5,0)"><line stroke="#000" y2="6"></line><text fill="#000" y="9" dy="0.71em">800</text></g><g class="tick" opacity="1" transform="translate(342.5,0)"><line stroke="#000" y2="6"></line><text fill="#000" y="9" dy="0.71em">900</text></g><g class="tick" opacity="1" transform="translate(380.5,0)"><line stroke="#000" y2="6"></line><text fill="#000" y="9" dy="0.71em">1,000</text></g></g><g fill="none" font-size="10" font-family="sans-serif" text-anchor="end"><path class="domain" stroke="#000" d="M-6,340.5H0.5V0.5H-6"></path><g class="tick" opacity="1" transform="translate(0,340.5)"><line stroke="#000" x2="-6"></line><text fill="#000" x="-9" dy="0.32em">0.000</text></g><g class="tick" opacity="1" transform="translate(0,306.5)"><line stroke="#000" x2="-6"></line><text fill="#000" x="-9" dy="0.32em">0.001</text></g><g class="tick" opacity="1" transform="translate(0,272.5)"><line stroke="#000" x2="-6"></line><text fill="#000" x="-9" dy="0.32em">0.002</text></g><g class="tick" opacity="1" transform="translate(0,238.5)"><line stroke="#000" x2="-6"></line><text fill="#000" x="-9" dy="0.32em">0.003</text></g><g class="tick" opacity="1" transform="translate(0,204.5)"><line stroke="#000" x2="-6"></line><text fill="#000" x="-9" dy="0.32em">0.004</text></g><g class="tick" opacity="1" transform="translate(0,170.5)"><line stroke="#000" x2="-6"></line><text fill="#000" x="-9" dy="0.32em">0.005</text></g><g class="tick" opacity="1" transform="translate(0,136.5)"><line stroke="#000" x2="-6"></line><text fill="#000" x="-9" dy="0.32em">0.006</text></g><g class="tick" opacity="1" transform="translate(0,102.50000000000003)"><line stroke="#000" x2="-6"></line><text fill="#000" x="-9" dy="0.32em">0.007</text></g><g class="tick" opacity="1" transform="translate(0,68.5)"><line stroke="#000" x2="-6"></line><text fill="#000" x="-9" dy="0.32em">0.008</text></g><g class="tick" opacity="1" transform="translate(0,34.50000000000006)"><line stroke="#000" x2="-6"></line><text fill="#000" x="-9" dy="0.32em">0.009</text></g><g class="tick" opacity="1" transform="translate(0,0.5)"><line stroke="#000" x2="-6"></line><text fill="#000" x="-9" dy="0.32em">0.010</text></g></g><g><path class="mypath" fill="#69b3a2" opacity=".8" stroke="#000" stroke-width="1" stroke-linejoin="round" d="M0,338.5427114139985L1.2666666666666668,336.7904953760682C2.5333333333333337,335.0382793381379,5.066666666666667,331.5338472622772,7.6000000000000005,309.2990436069847C10.133333333333335,287.0642399516922,12.666666666666666,246.09906471696775,15.200000000000001,197.96888726773545C17.733333333333334,149.8387098185032,20.26666666666667,94.54353015476308,22.8,68.56636975650758C25.333333333333332,42.589209358252084,27.86666666666667,45.930068225481214,30.400000000000002,57.211662857247994C32.93333333333334,68.49325748901478,35.46666666666667,87.71558788531922,38,118.14763983687003C40.53333333333333,148.57969178842083,43.06666666666666,190.22146529521797,45.6,207.04720034685738C48.13333333333333,223.8729353984968,50.666666666666664,215.88263199497842,53.20000000000001,223.57429037364412C55.73333333333334,231.2659487523099,58.26666666666667,254.6395689131597,60.800000000000004,270.8234030400126C63.333333333333336,287.0072371668654,65.86666666666666,296.0012852597213,68.39999999999999,301.7870679196199C70.93333333333332,307.5728505795186,73.46666666666665,310.1503678064599,76,310.81581335976165C78.53333333333333,311.4812589130633,81.06666666666666,310.2346327927253,83.6,312.1900761504722C86.13333333333333,314.145519508219,88.66666666666667,319.30303234405073,91.19999999999999,322.8359658123247C93.73333333333333,326.36889928059867,96.26666666666667,328.2772533813148,98.8,329.2078858031576C101.33333333333333,330.1385182250003,103.86666666666667,330.0914289679697,106.39999999999999,329.9799017802655C108.93333333333334,329.86837459256134,111.46666666666665,329.69240947418353,114,329.2116033760811C116.53333333333335,328.7307972779785,119.06666666666668,327.9451502001512,121.60000000000002,325.065270375434C124.13333333333334,322.1853905507169,126.66666666666669,317.21127797910987,129.20000000000002,318.54464746766223C131.73333333333335,319.8780169562146,134.26666666666665,327.5188685049263,136.79999999999998,331.6937028979866C139.33333333333334,335.8685372910469,141.86666666666667,336.57735452845577,144.4,333.3182822655444C146.93333333333334,330.05921000263294,149.46666666666667,322.83224823940117,152,322.8607496318145C154.53333333333333,322.8892510242278,157.06666666666666,330.1732155722861,159.6,333.1794928764013C162.13333333333333,336.1857701805166,164.66666666666666,334.91436024068884,167.20000000000002,330.9489491223175C169.73333333333332,326.9835380039462,172.26666666666665,320.3241257070313,174.80000000000004,320.6872086625572C177.33333333333334,321.05029161808307,179.86666666666667,328.43586982604967,182.4,332.54874467038536C184.9333333333333,336.66161951472117,187.46666666666667,337.50179099542606,190,336.53893960824655C192.53333333333333,335.57608822106704,195.0666666666667,332.810213966003,197.6,332.7755166187173C200.13333333333333,332.7408192714315,202.66666666666666,335.437298831924,205.20000000000002,336.61948702158844C207.73333333333335,337.80167521125287,210.26666666666668,337.4695720300893,212.80000000000004,335.50669352649555C215.33333333333334,333.5438150229017,217.86666666666665,329.9501611968777,220.39999999999998,330.1955210098269C222.9333333333333,330.44088082277614,225.46666666666667,334.5252542746986,228,336.52283012557814C230.53333333333333,338.5204059764577,233.0666666666667,338.43118422629436,235.60000000000002,338.6034317717486C238.13333333333333,338.7756793172029,240.66666666666666,339.2093961582747,243.20000000000002,339.1994826304788C245.73333333333335,339.1895691026828,248.26666666666668,338.7360252060191,250.80000000000004,338.4844694381975C253.33333333333334,338.2329136703758,255.8666666666667,338.1833460313962,258.40000000000003,338.410117979728C260.93333333333334,338.6368899280599,263.4666666666667,339.1400014637032,266,339.36925179398406C268.5333333333333,339.5985021242649,271.06666666666666,339.5538912491832,273.59999999999997,339.5278682387189C276.13333333333327,339.5018452282546,278.6666666666667,339.4944100824077,281.2,339.4336897246576C283.73333333333335,339.3729693669075,286.26666666666665,339.25896379725435,288.8,339.1325663178563C291.3333333333333,339.0061688384582,293.86666666666673,338.8673794493152,296.40000000000003,337.96277003793676C298.93333333333334,337.0581606265583,301.4666666666667,335.3877311929444,304,335.21300526554114C306.5333333333333,335.0382793381379,309.06666666666666,336.3592569169453,311.59999999999997,337.40637329039026C314.13333333333327,338.45348966383517,316.6666666666667,339.2267448319176,319.2,338.9615579633765C321.73333333333335,338.69637109483546,324.26666666666665,337.39274218967086,326.8,337.31095558535446C329.3333333333333,337.2291689810381,331.8666666666666,338.3692246775698,334.4,338.9912985467643C336.93333333333334,339.6133724159588,339.46666666666664,339.71746445781605,342,338.828964529106C344.5333333333333,337.9404646003959,347.06666666666666,336.05937270111855,349.59999999999997,336.03334969065423C352.1333333333334,336.0073266801899,354.6666666666667,337.83637255853864,357.20000000000005,338.72859006017217C359.73333333333335,339.62080756180575,362.26666666666665,339.5761966867241,364.8,338.9491660536316C367.3333333333333,338.32213542053915,369.8666666666666,337.1126850294359,372.3999999999999,337.19075406082885C374.93333333333334,337.2688230922218,377.4666666666667,338.63441154611087,378.73333333333335,339.31720577305543L380,340"></path></g></g></svg>